PathFileType	4	(X/Y/Z)	s11c0203.trc
DataRate	CameraRate	NumFrames	NumMarkers	Units	OrigDataRate	OrigDataStartFrame	OrigNumFrames
200	200	4	48	mm	200	1500	2000
Frame#	Time	racr			lacr			c7			jug			rlel			rdr			llel			ldr			s2			lic			ric			lasi			rasi			rpsi			lpsi			rgt			lgt			rth1			rth2			rth3			rth4			rlfc			rmfc			rsh1			rsh2			rsh3			rsh4			rlmal			rcal			rtoe			rmt5			lth1			lth2			lth4			lth3			llfc			lmfc			llmal			lcal			lmt5			lsh1			lsh2			lsh3			lsh4			ltoe			SBIKE			LBIKE			RBIKE			
		X1	Y1	Z1	X2	Y2	Z2	X3	Y3	Z3	X4	Y4	Z4	X5	Y5	Z5	X6	Y6	Z6	X7	Y7	Z7	X8	Y8	Z8	X9	Y9	Z9	X10	Y10	Z10	X11	Y11	Z11	X12	Y12	Z12	X13	Y13	Z13	X14	Y14	Z14	X15	Y15	Z15	X16	Y16	Z16	X17	Y17	Z17	X18	Y18	Z18	X19	Y19	Z19	X20	Y20	Z20	X21	Y21	Z21	X22	Y22	Z22	X23	Y23	Z23	X24	Y24	Z24	X25	Y25	Z25	X26	Y26	Z26	X27	Y27	Z27	X28	Y28	Z28	X29	Y29	Z29	X30	Y30	Z30	X31	Y31	Z31	X32	Y32	Z32	X33	Y33	Z33	X34	Y34	Z34	X35	Y35	Z35	X36	Y36	Z36	X37	Y37	Z37	X38	Y38	Z38	X39	Y39	Z39	X40	Y40	Z40	X41	Y41	Z41	X42	Y42	Z42	X43	Y43	Z43	X44	Y44	Z44	X45	Y45	Z45	X46	Y46	Z46	X47	Y47	Z47	X48	Y48	Z48	
1500	7.5000	534.092686	1345.004184	-142.893485	472.127949	1361.292110	-448.539780	440.070690	1465.184100	-281.736251	463.558557	1285.263178	-296.128754	572.275847	1133.675678	42.279170	761.868543	968.508090	-66.882363	484.637985	1083.516544	-572.442118	759.574387	950.174439	-462.641290	-102.858322	1202.158427	-220.846418	77.582245	1258.151021	-443.513564	133.047484	1201.364618	-34.428703	118.806301	1180.154621	-411.896924	163.707816	1141.181248	-70.946583	-61.481388	1275.216771	-158.285919	-68.403356	1283.653853	-248.079548	57.404421	1042.832946	-28.506754	20.389834	1135.720775	-449.401187	146.056235	931.683150	-26.390534	225.480091	879.612923	-39.691106	262.969989	803.474620	-61.092101	252.463640	905.114304	-46.466253	328.039974	720.239967	-80.542048	329.040828	710.888106	-208.315285	234.817254	594.146095	-71.228617	199.933166	515.267803	-91.462929	131.784807	461.131996	-92.913086	221.673897	503.480567	-122.223750	41.201561	360.282776	-105.339402	-23.367637	370.075175	-153.150466	216.374148	212.327800	-146.125486	141.984091	220.296669	-77.073867	161.307511	1071.854030	-466.981451	245.820251	1057.532527	-463.438145	261.705948	1088.351015	-449.792733	314.837622	1000.252218	-469.033101	440.728081	922.105093	-446.508830	454.165857	906.520274	-316.483433	262.276986	515.030236	-442.257569	201.434172	471.419216	-406.345417	406.033657	415.627002	-459.808527	390.566075	805.358398	-469.993516	380.317513	721.077806	-459.587856	329.106064	648.977375	-456.962844	410.343236	711.634639	-437.264343	496.907255	441.964164	-386.199571	-215.766021	949.753363	-254.311469	-18.054364	81.270107	-460.649908	-17.959861	80.875225	-61.831934	
1501	7.5050	533.474311	1343.791515	-141.945661	470.571140	1363.533585	-448.180516	439.464532	1464.852789	-280.608868	463.070495	1285.074800	-295.711529	570.651419	1132.372658	43.256640	760.753011	968.663661	-65.788785	483.889464	1085.268016	-571.980519	758.116032	949.086110	-462.803499	-102.841112	1200.791775	-219.383593	76.337210	1256.383862	-442.225873	132.486980	1200.479161	-33.426861	117.957285	1177.600000	-411.842360	163.223550	1139.993564	-69.868868	-61.741803	1273.818562	-156.806033	-68.612761	1282.350112	-246.532914	58.965548	1041.876892	-28.258899	19.553443	1133.387244	-448.244992	148.923693	932.808080	-26.552089	230.227768	881.801981	-40.618367	268.966183	806.556486	-61.687827	256.690430	907.932881	-47.640501	334.877981	723.807013	-81.523225	334.926981	714.341288	-208.864396	238.726482	599.727014	-71.833272	202.218586	521.524644	-91.602833	132.852833	469.074044	-93.071829	223.697065	509.130077	-122.434594	40.171925	370.657017	-105.258680	-23.954420	382.381281	-153.199091	211.563025	218.289007	-146.338825	137.534219	228.267862	-77.126354	159.434490	1065.330902	-466.290993	243.575047	1048.860147	-463.336749	260.359455	1079.478270	-450.341490	310.998294	989.750588	-468.762787	435.378999	908.846196	-446.204119	449.981399	894.275583	-315.776899	261.965995	498.760289	-442.740331	202.167629	452.802057	-406.770163	409.367416	406.030118	-460.388808	385.827808	790.779325	-469.543430	376.876497	706.077164	-459.437958	326.754080	633.391909	-457.038504	407.023745	697.074835	-437.102213	498.863972	436.991565	-387.004946	-215.758766	949.684481	-254.162325	-18.069013	81.229591	-460.657772	-17.980903	80.853140	-61.820241	
1502	7.5100	532.946576	1343.120471	-140.750684	469.499521	1365.604952	-447.486190	438.881453	1464.796391	-279.371955	462.770142	1285.154906	-295.102648	568.782537	1131.234617	44.040364	759.729757	968.825405	-64.745718	482.960648	1087.116668	-571.303497	756.616793	949.512056	-463.126844	-102.806873	1199.204200	-218.019722	75.408062	1254.384663	-441.039449	131.782200	1199.636408	-32.749442	117.296442	1174.981454	-411.988359	162.733278	1138.935593	-69.158458	-61.982558	1272.256685	-155.494683	-68.815480	1280.797237	-245.159800	60.666231	1040.951363	-27.867946	19.146906	1130.786201	-447.352295	152.841197	933.490739	-26.946589	234.903256	884.300974	-41.652311	275.216217	809.629430	-62.109934	260.755525	910.791085	-48.863196	341.780903	727.550609	-81.663450	340.645100	717.693782	-209.407627	242.682611	605.626650	-72.405252	204.710392	528.196460	-91.814174	134.285785	476.967257	-93.241682	226.019372	514.960246	-122.532157	39.619896	381.269105	-105.126875	-24.032991	395.127703	-152.962667	207.159728	224.706769	-146.447296	133.541382	236.653653	-77.147442	157.677993	1058.522771	-465.661917	241.269262	1039.776457	-463.287030	259.120269	1070.175232	-450.994971	306.974322	978.735382	-468.199652	429.383167	894.766195	-445.881491	444.437162	880.654186	-315.246006	261.704516	481.997705	-443.008667	203.107762	434.043498	-406.924464	412.241931	396.318227	-460.771067	380.803584	775.688268	-469.205388	373.213337	690.779647	-459.182090	324.238980	617.335627	-457.270501	403.358378	682.410707	-437.032836	500.290699	431.241209	-387.417261	-215.740278	949.640224	-254.075768	-18.078771	81.123057	-460.672422	-17.974867	80.818967	-61.811650	
1503	7.5150	532.479108	1342.845045	-139.205636	468.811126	1367.566135	-446.496106	438.297350	1464.902811	-278.001029	462.643107	1285.389202	-294.241707	566.740317	1130.078689	44.628273	758.602038	968.752053	-63.946926	481.834346	1088.919283	-570.666413	755.177878	950.239894	-463.641193	-102.754610	1197.342494	-216.962702	74.628623	1252.167816	-439.958296	131.136490	1198.566813	-32.294239	116.767394	1172.177797	-412.184719	162.218127	1137.949908	-68.654041	-62.239697	1270.399352	-154.443944	-69.046678	1278.906530	-244.017202	62.534194	1039.996218	-27.357061	19.110945	1127.709392	-446.547030	157.588173	933.908748	-27.535798	239.535294	887.007887	-42.075267	281.224541	812.858594	-62.417091	264.688700	913.767362	-50.023970	348.522281	731.545560	-82.082496	346.125119	721.273479	-209.995149	246.839878	611.861567	-72.902312	207.519764	534.907750	-91.941989	136.315443	484.963184	-93.334103	228.767125	521.254429	-122.498572	39.660249	391.950229	-104.958553	-23.389042	407.833273	-152.838155	203.114793	231.433355	-146.511187	130.052065	245.252525	-77.170976	155.823059	1051.440905	-465.119399	238.950252	1030.325417	-463.213286	257.739245	1060.410652	-451.823423	302.776808	967.299200	-467.535135	423.019804	879.893715	-445.027983	438.721377	866.630463	-316.053366	261.476641	465.177110	-442.887205	204.408228	415.695011	-406.352046	414.601326	386.441767	-460.796237	375.523635	760.267809	-469.148906	369.422287	675.453508	-458.836708	321.638365	601.239004	-457.165530	399.640518	667.545722	-436.501132	501.337175	424.647554	-387.221815	-215.750803	949.583250	-254.030905	-18.058349	81.070381	-460.699695	-17.992592	80.777015	-61.804460	
